<?xml version="1.0" encoding="UTF-8"?>
<svg version="1.1" viewBox="0 0 2000 2000" width="500" height="500" xmlns="http://www.w3.org/2000/svg">
<path transform="translate(0)" d="m0 0h2e3v2e3h-2e3z"/>
<path transform="translate(1198,584)" d="m0 0 3 1-1 97-2 11-5 15-8 17-10 16-11 13-14 14-14 10-14 8-23 11-34 16-92 45-33 16-48 23-21 11-13 10-13 11-10 14-7 12-6 15-5 22-1 9-4-2-14-18-9-12-9-13-8-17-6-21-2-10-1-12v-19l2-15 6-22 8-19 9-15 9-11 9-10 7-7 15-11 16-9 42-21 23-11 32-16 23-11 36-18 46-22 52-26 23-11 40-20 23-11z" fill="#FD934D"/>
<path transform="translate(1197,812)" d="m0 0h3v96l-2 12-6 17-8 16-6 10-13 17-15 15-13 9-16 9-26 13-23 11-26 13-23 11-32 16-23 11-88 43-14 9-14 11-5 5-8 9-9 14-7 16-5 19-2 16-5-5-9-11-13-17-10-15-9-21-5-21-2-16v-16l2-18 5-19 8-20 10-17 14-18 10-10 9-7 21-13 26-13 46-22 42-21 23-11 34-17 23-11 39-19 66-32 16-8 39-19z" fill="#FD934D"/>
<path transform="translate(1197,1036)" d="m0 0h3l1 30v44l-1 121-5-2-25-13-19-10-25-13-22-12-26-13-19-10-13-7-6-7-2-5-1-9 4-11 5-5 9-6 88-44 19-10 16-8z" fill="#FD934D"/>
<path transform="translate(884,1249)" d="m0 0h15l5 2 9 11 9 10 6 7 1-29 1-1h18l1 1v60l-2 6h-15l-5-4-7-8-12-13-4-5-2-1 1 4v22l-1 5h-18l-1-1v-65z" fill="#FEFAF7"/>
<path transform="translate(841,1248)" d="m0 0h9l11 2 8 5 5 6 2 5v3l-2 1h-18l-4-5-2-1h-8l-3 1 1 5 14 4 11 3 6 4 5 6 1 4v9l-4 8-6 5-7 3-5 1h-16l-12-3-6-4-4-5-2-10 2-3 17 1 3 5v2l5 1h8l4-2-1-4-26-8-6-4-5-8v-11l5-8 5-4 9-3z" fill="#FEFAF7"/>
<path transform="translate(977,1249)" d="m0 0 24 1 5 12 16 44 3 9-1 1h-10l-12-1-3-8-23-1-2 9-9 1h-13l1-6 11-29 8-22 4-9z" fill="#FEFBF8"/>
<path transform="translate(1094,1249)" d="m0 0h29l15 1 6 3 6 7 2 5v14l-4 8-6 5-5 2-9 1h-13l1 20-2 1h-19l-1-1z" fill="#FEFAF8"/>
<path transform="translate(1029,1249)" d="m0 0h31l13 1 7 4 5 6 2 5v14l-4 8-6 5-6 2-20 1v11l-1 9-1 1h-19l-1-1z" fill="#FEFBF9"/>
<path transform="translate(1160,1249)" d="m0 0h20l1 1v65l-1 1h-20z" fill="#FEFCFB"/>
<path transform="translate(1116,1265)" d="m0 0h11l4 4v6l-5 4h-9l-2-2v-10z"/>
<path transform="translate(1051,1265)" d="m0 0h11l3 3 1 7-2 3-3 1h-10l-1-2v-10z"/>
<path transform="translate(987,1270)" d="m0 0h2l6 19v3h-12l-2-1 3-11z"/>
</svg>
